<?xml version="1.0" encoding="UTF-8"?>
<svg width="752pt" height="752pt" version="1.1" viewBox="0 0 752 752" xmlns="http://www.w3.org/2000/svg">
 <g>
  <path d="m568.3 537.73h-11.391c7.0586-7.8633 11.391-18.219 11.391-29.598v-141.19l-14.801 6.0664v135.12c0 16.352-13.246 29.598-29.598 29.598h-133.2c-4.0703 0-7.3984 3.3281-7.3984 7.3984-0.18359 9.6797-14.602 9.7578-14.801 0 0-4.0703-3.3281-7.3984-7.3984-7.3984l-133.2 0.003906c-16.352 0-29.598-13.246-29.598-29.598l-0.003906-221.99c0-16.352 13.246-29.598 29.598-29.598h33.816c2-5.4023 4.8086-10.359 8.2891-14.801h-42.105c-24.492 0-44.398 19.906-44.398 44.398v221.99c0 11.379 4.332 21.734 11.391 29.598h-11.391c-39.012 1.1523-39.219 57.977 0 59.199l384.79-0.003906c7.918 0 15.316-3.1094 20.941-8.6562 18.527-17.918 5.0039-51.055-20.941-50.539zm10.434 40.031c-2.8125 2.8125-6.5117 4.3672-10.434 4.3672h-384.79c-19.426-0.50781-19.574-29.051 0-29.598l171.45-0.003906c6.5352 19.473 35.352 19.461 41.883 0h171.45c12.801-0.36719 19.82 16.457 10.434 25.234z"/>
  <path d="m344.53 428.51c10.914 4.6289 23.023 4.6172 33.965 0.14844l191.73-78.512c22.645-9.3242 33.52-35.297 24.27-57.938l-44.844-109.52c-8.6992-22.301-36.066-33.762-57.941-24.27l-191.72 78.508c-22.805 9.3125-33.469 35.566-24.27 57.941l44.844 109.52c4.5156 11.027 13.023 19.535 23.977 24.125zm-57.348-151.32 146.73 23.68c2.6875 0.40234 5.5234-0.69531 7.1758-2.9609l87.914-119.73c3.5664-4.4258 49.625 116.75 51.797 119.65 6.2148 15.098-1.1094 32.41-16.207 38.629l-191.73 78.512c-14.547 6.3711-32.859-1.3281-38.551-16.133-1.0977-4.4883-51.961-121.01-47.137-121.65z"/>
  <path d="m258.03 271.34h-37.516c-4.0703 0-7.3984 3.3281-7.3984 7.3984l-0.003907 236.79c0 4.0703 3.3281 7.3984 7.3984 7.3984h310.79c4.0703 0 7.3984-3.3281 7.3984-7.3984v-136.45l-154.58 63.266c-29.211 12.684-65.801-2.6953-77.254-32.336l-44.844-109.52c-3.8477-9.25-5.1797-19.238-3.9961-29.156z"/>
 </g>
</svg>
